<svg id="Layer_1" data-name="Layer 1" xmlns="http://www.w3.org/2000/svg" viewBox="0 0 497.87 324.15"><defs><style>.cls-1{fill:#324452;}</style></defs><title>Artboard 1</title><path class="cls-1" d="M115.85,214.21c0,32.55-1,77.36-1,109.91,134.38,0,249.3,0,383,0,.35-3.11,0-6.18,0-9.21.08-26.95-.12-53.91.19-80.85.08-6.84-1.52-10.61-8.75-12.85C436,204.7,382.84,187.56,329.49,171.08c-5.2-1.62-11.78-1.3-17.08.29C273,183.18,197.7,213,193.55,214.27c-5.07-22.58,4.74-26.67,33.49-42.92,42.58-24.56,44.38-25.48,81.75-46.87,10.68-5.15,19.17-2.58,29.93,2.23,49.51,22.16,154.09,74.91,159.15,76.81V156.23c0-7.38-.81-8.69-5.43-11-61.23-30.93-104.58-51.35-163.78-80.74-3-1.51-7.84-2.2-11-.49-58,33-81.69,47.07-142.32,81.54-7.87,4.72-11.54,13.52-11.58,16.32-.5,32.81-.32,65.63-.32,100.23,23.5-5.67,115.63-32.89,149.18-40.71a39.18,39.18,0,0,1,17.47-.13c38.86,9.4,77.47,19.92,116.46,28.73,12,2.72,15.69,8.06,14.26,19.27-.58,4.56-.09,9.25-.09,15.21-23-2.42-81.88-8.24-102.73-12.09-25.42-4.09-54.52-3.68-71.54,0-30.62,4.08-100,13.68-130.73,17-1.86.2-3.77,0-7.37,0,0-40.94-.65-85.28-.65-127.81-24,13.57-28.44,16.33-46,26.3C64.64,209.13,51.94,216.14,9,240.23c-6.31,3.53-9.16,7.22-9,14.71.5,22.86.18,45.74.18,69.21H24c0-15.78-.45-31.13.3-46.41.21-4.2.14-10.82,7.77-15.88,27.14-16,26-15.5,70.85-40.54,3.25-1.78,7.36-4.21,12.91-7.11"/><path class="cls-1" d="M0,217.17v-3.38l317.68-212a12.6,12.6,0,0,1,12.48-.3L497.87,92v25.24L332.13,35.42a16.55,16.55,0,0,0-13.52-.31Z"/></svg>